HIERARCHY
ROOT ui
{
	 OFFSET 0 0 0
	 CHANNELS 3 XPosition YPosition Z Position
	 EndSite
	 {
	 OFFSET 0 -1 0
	 }
}
ROOT li
{
	 OFFSET 0 0 0
	 CHANNELS 3 XPosition YPosition Z Position
	 EndSite
	 {
	 OFFSET 0 -1 0
	 }
}
ROOT ul
{
	 OFFSET 0 0 0
	 CHANNELS 3 XPosition YPosition Z Position
	 EndSite
	 {
	 OFFSET 0 -1 0
	 }
}
ROOT ll
{
	 OFFSET 0 0 0
	 CHANNELS 3 XPosition YPosition Z Position
	 EndSite
	 {
	 OFFSET 0 -1 0
	 }
}
ROOT tt
{
	 OFFSET 0 0 0
	 CHANNELS 3 XPosition YPosition Z Position
	 EndSite
	 {
	 OFFSET 0 -1 0
	 }
}
ROOT tb
{
	 OFFSET 0 0 0
	 CHANNELS 3 XPosition YPosition Z Position
	 EndSite
	 {
	 OFFSET 0 -1 0
	 }
}
ROOT td
{
	 OFFSET 0 0 0
	 CHANNELS 3 XPosition YPosition Z Position
	 EndSite
	 {
	 OFFSET 0 -1 0
	 }
}
ROOT v
{
	 OFFSET 0 0 0
	 CHANNELS 3 XPosition YPosition Z Position
	 EndSite
	 {
	 OFFSET 0 -1 0
	 }
}
ROOT bn
{
	 OFFSET 0 0 0
	 CHANNELS 3 XPosition YPosition Z Position
	 EndSite
	 {
	 OFFSET 0 -1 0
	 }
}
MOTION
Frames: 24
Frame Time: 0.002
-0.0027165920734405517	-0.0065905599594116215	0		0.476952880859375	-2.44076416015625	0		-1.124700439453125	-0.15860491943359376	0		-0.7915279541015625	-2.2309228515625	0		2.451007568359375	-0.685255126953125	0		3.76372509765625	-0.47561581420898436	0		4.98231298828125	-0.2758029479980469	0		6.0024892578125	0.53353271484375	0		-0.17009156799316405	5.89595703125	0		
9.433820247650147E-4	-0.002370457887649536	0		0.4645298156738281	-2.43935302734375	0		-1.1210557861328125	-0.15536317443847655	0		-0.7390394897460938	-2.237298828125	0		2.480927490234375	-0.6594088134765625	0		3.80758544921875	-0.45496923828125	0		5.00699072265625	-0.26994119262695315	0		6.0191083984375	0.5334752807617188	0		-0.16741802978515624	5.892193359375	0		
0.003558762073516846	8.803899884223938E-4	0		0.4571961364746094	-2.4279873046875	0		-1.11743115234375	-0.1511019287109375	0		-0.7833161010742188	-2.221445556640625	0		2.493891357421875	-0.6273362426757813	0		3.7781689453125	-0.4533957824707031	0		5.0065634765625	-0.26975518798828124	0		6.0096982421875	0.5337531127929688	0		-0.16968141174316406	5.89551025390625	0		
-0.009815552711486816	0.007347661018371582	0		0.47960333251953124	-2.434980224609375	0		-1.05189013671875	-0.1516002960205078	0		-0.7119332885742188	-2.23102587890625	0		2.540611572265625	-0.6126759033203125	0		3.815655517578125	-0.4576489562988281	0		5.03479150390625	-0.2949205322265625	0		6.00925927734375	0.5339276733398437	0		-0.16804190063476562	5.8927939453125	0		
-0.004454455852508545	-0.0054077448844909665	0		0.44117608642578127	-2.42619580078125	0		-1.11836376953125	-0.1504287109375	0		-0.7884031982421875	-2.225736572265625	0		2.519551025390625	-0.5781539306640625	0		3.814219970703125	-0.4534048767089844	0		5.03147265625	-0.2816797790527344	0		6.000796875	0.5342100830078125	0		-0.1683831024169922	5.8931162109375	0		
-0.004949653148651123	-0.005077682018280029	0		0.4696211853027344	-2.4262412109375	0		-1.1188624267578124	-0.1500722198486328	0		-0.7509791870117187	-2.227865966796875	0		2.541216796875	-0.5641616821289063	0		3.834976806640625	-0.4324313049316406	0		5.036857421875	-0.2905439453125	0		6.01321240234375	0.5262347412109375	0		-0.16775106811523438	5.89243798828125	0		
-0.005458226203918457	-0.004738537788391113	0		0.4530166015625	-2.428711669921875	0		-1.184230712890625	-0.13788706970214842	0		-0.7796032104492188	-2.232155029296875	0		2.56308349609375	-0.5331649169921875	0		3.825407958984375	-0.4360726623535156	0		5.0394296875	-0.28336697387695314	0		6.0129189453125	0.5424248657226562	0		-0.16811482238769532	5.89278125	0		
0.024075199127197265	-7.708089947700501E-4	0		0.4725400390625	-2.420629638671875	0		-1.10371728515625	-0.13553375244140625	0		-0.7860221557617187	-2.219713623046875	0		2.5788193359375	-0.5120866088867188	0		3.87192919921875	-0.43241659545898437	0		5.04989453125	-0.2842864074707031	0		6.0073173828125	0.5346834716796875	0		-0.134419921875	5.8977021484375	0		
-0.016372190475463868	0.005088974952697754	0		0.44196563720703125	-2.41990771484375	0		-1.1042347412109375	-0.13515061950683593	0		-0.7526851196289063	-2.2267685546875	0		2.597429931640625	-0.5010406494140625	0		3.8554560546875	-0.42796060180664064	0		5.0552587890625	-0.2931385498046875	0		6.0068173828125	0.5348816528320313	0		-0.18299177551269533	5.8816689453125	0		
-0.002943658113479614	2.7393698692321775E-4	0		0.4673282470703125	-2.42488720703125	0		-1.0916068115234374	-0.12392511749267578	0		-0.7532517700195313	-2.22638671875	0		2.57615234375	-0.48148361206054685	0		3.85997509765625	-0.42476580810546877	0		5.05783251953125	-0.28595083618164063	0		6.00322314453125	0.5271212158203125	0		-0.18335397338867188	5.88103564453125	0		
-0.007487884998321533	-0.0033063449859619142	0		0.4398078918457031	-2.4211884765625	0		-1.15317529296875	-0.12875048828125	0		-0.7538069458007812	-2.22599755859375	0		2.6008974609375	-0.4615057678222656	0		3.86440576171875	-0.4295671081542969	0		5.06910107421875	-0.3038731689453125	0		6.00664208984375	0.519273681640625	0		-0.16657221984863282	5.8901923828125	0		
0.022087762832641602	6.857749819755554E-4	0		0.47918655395507814	-2.427335693359375	0		-1.0566978759765624	-0.13257894897460937	0		-0.7773539428710937	-2.226308349609375	0		2.5855146484375	-0.4530147399902344	0		3.894160400390625	-0.41068630981445314	0		5.07578466796875	-0.2907330322265625	0		6.01048974609375	0.5434244995117188	0		-0.16590310668945313	5.88855908203125	0		
0.0036318700313568114	2.9510098695755005E-4	0		0.4537242126464844	-2.42265087890625	0		-1.0521085205078125	-0.1292322082519531	0		-0.7148558959960938	-2.22571044921875	0		2.602349365234375	-0.42992919921875	0		3.875641357421875	-0.41518966674804686	0		5.07124267578125	-0.29744955444335935	0		6.0098564453125	0.52763037109375	0		-0.16715019226074218	5.89095654296875	0		
0.017181112289428712	-0.0024988360404968263	0		0.49422439575195315	-2.423803955078125	0		-1.0584591064453126	-0.12373919677734375	0		-0.7573558349609375	-2.22676611328125	0		2.600014892578125	-0.42259683227539063	0		3.869320556640625	-0.40684429931640625	0		5.070822265625	-0.297216064453125	0		6.0094609375	0.5278357543945312	0		-0.14846360778808593	5.88510400390625	0		
-0.009191972732543945	-0.001775657057762146	0		0.46477743530273435	-2.423056884765625	0		-1.052902587890625	-0.12839329528808593	0		-0.734801025390625	-2.22664794921875	0		2.6108056640625	-0.40842868041992186	0		3.889815673828125	-0.41584140014648435	0		5.0822060546875	-0.31513375854492187	0		6.00910205078125	0.5280418701171875	0		-0.18271992492675782	5.880935546875	0		
0.016467538833618164	-0.0017146660089492798	0		0.473259521484375	-2.43079150390625	0		-1.126174560546875	-0.12202652740478516	0		-0.7652966918945312	-2.23284326171875	0		2.634516845703125	-0.4034245300292969	0		3.881760986328125	-0.39246722412109375	0		5.07494873046875	-0.30780850219726563	0		6.00076806640625	0.5273515625	0		-0.18287380981445311	5.88133642578125	0		
-0.005780929088592529	0.0029689059257507326	0		0.44794631958007813	-2.425083984375	0		-1.1165069580078124	-0.12371847534179688	0		-0.7277119750976563	-2.23590771484375	0		2.598308349609375	-0.39464468383789064	0		3.886330078125	-0.40125466918945313	0		5.07872705078125	-0.30062261962890624	0		6.00459912109375	0.536507568359375	0		-0.16784646606445314	5.89254833984375	0		
0.019950029373168945	0.0030398879051208496	0		0.4397301025390625	-2.414589111328125	0		-1.114623046875	-0.11130194854736328	0		-0.766010009765625	-2.231986083984375	0		2.610066162109375	-0.39147799682617185	0		3.884244140625	-0.3859500732421875	0		5.067451171875	-0.3002393493652344	0		6.004349609375	0.5367183837890624	0		-0.1338592071533203	5.89752099609375	0		
-0.0023480980396270753	-0.001261821985244751	0		0.47424337768554686	-2.427642822265625	0		-1.037868408203125	-0.11184963226318359	0		-0.735451416015625	-2.2419482421875	0		2.5928193359375	-0.3909307556152344	0		3.912980712890625	-0.38704116821289064	0		5.078205078125	-0.30013644409179685	0		6.00802783203125	0.5288816528320313	0		-0.18310232543945312	5.8825751953125	0		
0.015454736709594727	-7.596000283956528E-5	0		0.46505807495117185	-2.41912255859375	0		-1.038080810546875	-0.11139505004882813	0		-0.7527207641601562	-2.240282958984375	0		2.595662353515625	-0.38563735961914064	0		3.864841064453125	-0.38012942504882813	0		5.07107763671875	-0.292796630859375	0		5.99594189453125	0.5372551879882812	0		-0.1831136016845703	5.8830009765625	0		
-0.010731749534606934	6.882039904594422E-4	0		0.4716566772460937	-2.428802734375	0		-1.038273193359375	-0.11093399047851563	0		-0.748155029296875	-2.2528955078125	0		2.619315185546875	-0.3966109619140625	0		3.89850634765625	-0.39027630615234377	0		5.07163134765625	-0.31155364990234374	0		5.99965380859375	0.5284269409179687	0		-0.16698739624023437	5.89222412109375	0		
-0.005960803985595703	-0.0029444429874420164	0		0.44849142456054686	-2.4210869140625	0		-1.1044608154296875	-0.11060467529296875	0		-0.7405390625	-2.2625419921875	0		2.587193603515625	-0.39085012817382814	0		3.89469580078125	-0.3609266052246094	0		5.0686279296875	-0.29725543212890626	0		6.004599609375	0.5365897216796875	0		-0.1649905548095703	5.8906357421875	0		
-0.0030931029319763185	4.5415800809860227E-4	0		0.49531350708007815	-2.415280029296875	0		-1.0254853515625	-0.09916527557373046	0		-0.744851318359375	-2.2670263671875	0		2.569023681640625	-0.38926336669921874	0		3.877396240234375	-0.36939593505859375	0		5.05848681640625	-0.29385684204101564	0		6.0073544921875	0.5297875366210938	0		-0.16889833068847657	5.896130859375	0		
-0.011251087188720704	0.002003283977508545	0		0.4360675048828125	-2.41407763671875	0		-1.0425802001953124	-0.0924648666381836	0		-0.7342297973632812	-2.276701416015625	0		2.565773681640625	-0.39386376953125	0		3.8672392578125	-0.366947998046875	0		5.04830615234375	-0.293447509765625	0		5.99920068359375	0.5301394653320313	0		-0.16887663269042968	5.89658056640625	0		
